<svg id="jichigraph_logo.svg" xmlns="http://www.w3.org/2000/svg" width="519.313" height="140.875" viewBox="0 0 519.313 140.875">
  <defs>
    <style>
      .cls-1 {
        fill: #f27621;
      }

      .cls-1, .cls-2, .cls-3 {
        fill-rule: evenodd;
      }

      .cls-2 {
        fill: #feb83a;
      }

      .cls-3 {
        fill: #f27521;
      }
    </style>
  </defs>
  <g id="jichigraph_favicon.svg">
    <g id="pin_icon">
      <g id="graph">
        <path id="rect_o" class="cls-1" d="M508.984,796.269h22.869v43.908H508.984V796.269Z" transform="translate(-480.625 -744.125)"/>
        <path id="rect_y" class="cls-2" d="M536.426,776.145h22.869v64.032H536.426V776.145Z" transform="translate(-480.625 -744.125)"/>
      </g>
      <path id="pin" class="cls-3" d="M533.682,744.129a53.055,53.055,0,0,1,53.056,53.055c0,29.3-48.182,87.816-53.056,87.816s-53.055-58.514-53.055-87.816A53.054,53.054,0,0,1,533.682,744.129Zm0,11.891a39.335,39.335,0,1,1-39.334,39.335A39.334,39.334,0,0,1,533.682,756.02Z" transform="translate(-480.625 -744.125)"/>
    </g>
  </g>
  <path id="Jichigraph_path" class="cls-3" d="M626.9,847.913c13.082,0,18.662-9.962,18.662-22.338V780.9H634.673v43.671c0,9.559-2.836,12.98-8.69,12.98-3.843,0-7.044-2.113-9.148-6.339l-7.044,5.232C613.45,844.291,619.03,847.913,626.9,847.913Zm30.278-1.207h10.886V797.2H657.175v49.507Zm5.489-51.556c3.842,0,6.5-2.717,6.5-6.742s-2.653-6.742-6.5-6.742-6.5,2.717-6.5,6.742S658.821,795.15,662.664,795.15Zm35.127,52.763a21.2,21.2,0,0,0,14.728-6.037l-4.391-7.547a13.784,13.784,0,0,1-9.239,3.924c-6.861,0-11.71-6.44-11.71-16.2,0-9.861,4.94-16.3,12.076-16.3a10.082,10.082,0,0,1,7.409,3.22l5.215-7.446a18.185,18.185,0,0,0-13.173-5.534c-12.076,0-22.688,9.559-22.688,26.061C676.018,838.454,685.532,847.913,697.791,847.913Zm21.129-1.207h10.887V812.292c3.567-4.024,6.129-6.037,10.062-6.037,4.758,0,6.862,2.918,6.862,10.968v29.483h10.794V815.714c0-12.478-4.208-19.722-13.9-19.722-6.129,0-10.611,3.622-14.271,7.446l0.458-9.459V775.666H718.92v71.04Zm48.848,0h10.886V797.2H767.768v49.507Zm5.489-51.556c3.842,0,6.5-2.717,6.5-6.742s-2.653-6.742-6.5-6.742-6.5,2.717-6.5,6.742S769.415,795.15,773.257,795.15Zm32.017,73.391c14.728,0,24.059-7.748,24.059-17.509,0-8.553-5.763-12.276-16.466-12.276h-7.959c-5.4,0-7.227-1.61-7.227-4.326a5.726,5.726,0,0,1,2.1-4.629,16.514,16.514,0,0,0,6.038,1.207c9.514,0,17.2-5.836,17.2-16.8a14.025,14.025,0,0,0-2.47-8.15h8.05V797.2H812.5a19.124,19.124,0,0,0-6.678-1.207c-9.423,0-17.839,6.439-17.839,17.81a17.033,17.033,0,0,0,5.946,13.081v0.4c-2.653,2.013-5.031,5.333-5.031,9.157a9.588,9.588,0,0,0,4.116,8.251v0.4c-4.116,2.817-6.5,6.339-6.5,10.565C786.52,864.315,794.571,868.541,805.274,868.541Zm0.549-44.979c-4.208,0-7.685-3.522-7.685-9.76,0-6.138,3.385-9.559,7.685-9.559s7.593,3.421,7.593,9.559C813.416,820.04,810.031,823.562,805.823,823.562Zm1.1,37.231c-6.952,0-11.343-2.516-11.343-6.943,0-2.315,1.006-4.428,3.385-6.44a21.719,21.719,0,0,0,6.129.7h6.037c5.032,0,7.776,1.107,7.776,4.83C818.9,857.17,814.056,860.793,806.92,860.793Zm27.991-14.087H845.8V816.72c2.653-7.547,6.952-10.163,10.52-10.163a13.6,13.6,0,0,1,4.3.6l2.2-10.163a11.814,11.814,0,0,0-5.123-1.006c-4.757,0-9.514,3.622-12.807,10.062h-0.274l-0.824-8.855h-8.873v49.507ZM878,847.913c5.306,0,9.7-2.817,13.722-6.641h0.366L893,846.706h8.782V817.424c0-13.785-5.672-21.432-16.832-21.432-7.136,0-13.539,3.018-18.479,6.439l3.842,7.849c4.025-2.616,8.233-4.629,12.624-4.629,6.038,0,7.867,4.227,8.05,9.258-18.479,2.213-26.346,7.647-26.346,18.514C864.64,842.077,870.129,847.913,878,847.913Zm3.293-9.459c-3.659,0-6.22-1.609-6.22-5.836,0-5.031,3.659-8.049,15.917-9.659v10.464C887.693,836.845,884.949,838.454,881.289,838.454Zm30.644,27.672h10.886v-15.4l-0.366-8.251c3.568,3.422,7.5,5.434,11.526,5.434,9.972,0,19.12-9.76,19.12-26.665,0-15.3-6.5-25.256-17.656-25.256-4.94,0-9.7,2.918-13.539,6.439H921.63l-0.824-5.232h-8.873v68.927ZM931.6,838.052c-2.562,0-5.672-1.006-8.782-3.924V811.286c3.385-3.723,6.4-5.433,9.605-5.433,6.678,0,9.606,5.735,9.606,15.5C942.03,832.417,937.456,838.052,931.6,838.052Zm29.728,8.654h10.886V812.292c3.568-4.024,6.13-6.037,10.063-6.037,4.757,0,6.861,2.918,6.861,10.968v29.483h10.795V815.714c0-12.478-4.208-19.722-13.9-19.722-6.129,0-10.612,3.622-14.271,7.446l0.457-9.459V775.666H961.329v71.04Z" transform="translate(-480.625 -744.125)"/>
</svg>
